<svg id="圖層_1" data-name="圖層 1" xmlns="http://www.w3.org/2000/svg" viewBox="0 0 800 187.78"><defs><style>.cls-1{fill:#4990cd;}.cls-2{fill:#67a4d9;}.cls-3{fill:#93bfe6;}</style></defs><title>morning1</title><g id="圖層_2" data-name="圖層 2"><g id="Object"><polygon class="cls-1" points="0 187.78 0 60.1 9.11 60.1 9.11 93.72 26.98 93.72 26.98 75.83 101.2 75.83 101.2 129.49 147.94 129.49 147.94 32.91 180.93 32.91 180.93 88.71 211.17 88.71 211.17 30.05 229.72 10.73 251.72 10.73 251.72 2.86 263.4 2.86 263.4 90.14 288.14 89.79 288.14 2.86 299.83 2.86 299.83 13.59 336.94 13.59 351.38 28.62 351.38 108.75 380.93 108.75 380.93 38.99 422.85 38.99 422.85 55.09 452.41 85.85 452.41 62.24 462.71 62.24 462.71 86.57 485.39 86.57 533.68 36.31 588.49 36.31 588.49 58.66 622.16 58.66 622.16 22.89 635.22 9.3 635.22 0 640.03 0 640.03 8.59 654.12 23.25 654.12 71.54 686.77 71.54 686.77 31.48 701.89 31.48 701.89 55.09 728.69 55.09 728.69 32.91 786.43 11.45 786.43 47.93 800 47.93 800 187.78 0 187.78"/><polygon class="cls-2" points="0 187.78 0 115.18 12.37 115.18 25.52 101.5 25.52 134.5 40.21 134.5 40.21 73.33 45.88 73.33 45.88 61.53 55.67 61.53 55.67 50.8 70.1 50.8 70.1 73.87 83.5 73.87 92.01 82.72 92.01 135.04 111.34 135.04 111.34 95.87 117.78 102.57 128.61 91.31 128.61 78.16 138.14 78.16 138.14 92.11 144.84 92.11 144.84 55.09 149.23 59.65 149.23 91.57 163.92 91.57 163.92 112.5 204.12 112.5 204.12 50.8 217.01 50.8 217.01 107.14 226.03 116.53 232.99 109.28 250.51 109.28 260.57 119.74 265.46 119.74 265.46 107.14 275.77 96.4 318.56 96.4 318.56 103.38 311.86 103.38 311.86 111.43 326.8 111.43 326.8 126.99 337.11 126.99 337.11 87.28 356.7 87.28 356.7 106.06 366.24 115.99 366.24 87.28 385.57 87.28 385.57 63.14 390.98 68.77 390.98 87.82 400 87.82 400 113.57 407.22 113.57 407.22 70.11 416.5 70.11 416.5 109.28 439.69 109.28 439.69 97.48 455.67 97.48 455.67 103.92 467.53 103.92 467.53 50.8 476.29 50.8 476.29 38.99 480.41 38.99 480.41 51.33 485.57 51.33 485.57 38.99 490.72 38.99 490.72 68.5 525.26 68.5 525.26 95.33 535.05 95.33 535.05 88.89 543.3 88.89 543.3 79.23 565.46 79.23 565.46 67.43 622.16 67.43 622.16 101.23 630.93 101.23 630.93 78.7 640.21 78.7 640.21 59.92 661.34 59.92 661.34 77.09 686.08 77.09 686.08 105.53 693.3 105.53 693.3 63.67 696.91 63.67 696.91 105.53 720.62 105.53 720.62 44.89 740.21 44.89 740.21 118.94 757.22 118.94 757.22 44.36 777.32 44.36 777.32 116.26 787.11 116.26 787.11 80.31 800 80.31 800 187.78 0 187.78"/><polygon class="cls-3" points="800 187.78 0 187.78 0 127.61 4.12 127.61 4.12 163.25 12.89 163.25 12.89 122.45 18.56 122.45 28.61 113.31 28.61 130.9 32.47 130.9 32.47 90.1 43.81 90.1 43.81 80.72 52.06 80.72 52.06 68.53 77.15 68.53 77.15 82.91 85.39 90.41 85.39 151.06 96.39 151.06 96.39 117.61 100.17 114.17 100.17 91.35 103.61 91.35 103.61 114.17 108.42 118.55 108.42 152.31 115.29 152.31 115.29 116.67 118.73 116.67 118.73 111.36 124.57 111.36 132.3 104.32 132.3 95.41 137.28 95.41 137.28 103.86 141.75 103.86 141.75 95.1 150.34 95.1 150.34 104.48 157.04 110.58 157.04 124.8 161 124.8 161 119.8 164.43 119.8 164.43 125.42 169.24 129.8 169.24 136.68 174.74 136.68 174.74 71.97 211.17 71.97 211.17 111.05 222.85 121.67 222.85 137.3 228.01 137.3 228.01 126.36 232.3 122.45 246.56 122.45 246.56 126.67 255.16 126.67 264.61 135.27 264.61 124.8 272.77 117.38 312.2 117.38 312.2 120.11 306.36 120.11 306.36 129.49 317.18 139.34 317.18 126.67 321.48 126.67 321.48 148.87 325.94 148.87 325.94 136.37 335.57 136.37 335.57 153.25 344.16 153.25 344.16 121.67 354.12 112.61 363.57 121.2 363.57 147.31 370.7 140.82 370.7 121.36 376.12 121.36 376.12 92.6 391.92 92.6 391.92 131.05 399.57 124.1 413.23 124.1 421.52 131.64 421.52 116.36 436.6 116.36 436.6 119.48 450.69 119.48 450.69 151.06 455.84 151.06 455.84 131.37 461 131.37 461 116.98 467.53 116.98 467.53 147.93 474.06 147.93 474.06 93.85 478.18 93.85 478.18 89.79 512.54 95.1 512.54 131.99 518.04 131.99 518.04 117.61 527.32 117.61 527.32 113.23 533.5 113.23 533.5 108.86 547.6 108.86 547.6 99.48 558.59 99.48 558.59 116.67 565.81 116.67 565.81 96.04 575.43 96.04 575.43 88.54 580.93 88.54 580.93 95.73 589.52 95.73 610.14 76.97 610.14 129.18 616.67 129.18 616.67 117.3 627.32 107.61 633.5 107.61 633.5 119.8 642.44 119.8 642.44 84.47 650 84.47 650 81.35 662.37 81.35 662.37 85.41 670.27 85.41 670.27 103.54 687.63 119.33 687.63 133.71 693.64 133.71 693.64 118.86 703.61 109.79 703.61 82.28 708.76 82.28 708.76 71.34 717.35 71.34 717.35 62.28 720.45 62.28 720.45 55.09 723.88 55.09 723.88 62.28 730.76 62.28 730.76 83.53 750 83.53 750 131.05 758.25 131.05 758.25 143.24 771.65 131.05 771.65 143.87 779.9 143.87 779.9 104.17 800 104.17 800 187.78"/></g></g></svg>